<?xml version="1.0" encoding="UTF-8" standalone="no"?>
<svg
   xmlns:osb="http://www.openswatchbook.org/uri/2009/osb"
   xmlns:dc="http://purl.org/dc/elements/1.1/"
   xmlns:cc="http://creativecommons.org/ns#"
   xmlns:rdf="http://www.w3.org/1999/02/22-rdf-syntax-ns#"
   xmlns:svg="http://www.w3.org/2000/svg"
   xmlns="http://www.w3.org/2000/svg"
   xmlns:xlink="http://www.w3.org/1999/xlink"
   xmlns:sodipodi="http://sodipodi.sourceforge.net/DTD/sodipodi-0.dtd"
   xmlns:inkscape="http://www.inkscape.org/namespaces/inkscape"
   width="304"
   height="304"
   version="1.1"
   id="svg1007"
   sodipodi:docname="image-rules-icon.svg"
   inkscape:version="1.0 (4035a4fb49, 2020-05-01)"
   inkscape:export-filename="C:\Users\Waylon\git\Design Challenges\rock-paper-scissors\src\assets\icons\icon-30x30.png"
   inkscape:export-xdpi="9.5"
   inkscape:export-ydpi="9.5">
  <metadata
     id="metadata1011">
    <rdf:RDF>
      <cc:Work
         rdf:about="">
        <dc:format>image/svg+xml</dc:format>
        <dc:type
           rdf:resource="http://purl.org/dc/dcmitype/StillImage" />
        <dc:title></dc:title>
      </cc:Work>
    </rdf:RDF>
  </metadata>
  <sodipodi:namedview
     inkscape:document-rotation="0"
     pagecolor="#1f3756"
     bordercolor="#666666"
     borderopacity="1"
     objecttolerance="10"
     gridtolerance="10"
     guidetolerance="10"
     inkscape:pageopacity="1"
     inkscape:pageshadow="2"
     inkscape:window-width="1920"
     inkscape:window-height="1017"
     id="namedview1009"
     showgrid="false"
     inkscape:zoom="2.2697368"
     inkscape:cx="194.63041"
     inkscape:cy="177.24969"
     inkscape:window-x="1912"
     inkscape:window-y="118"
     inkscape:window-maximized="1"
     inkscape:current-layer="svg1007" />
  <defs
     id="defs933">
    <linearGradient
       id="linearGradient1086"
       osb:paint="solid">
      <stop
         style="stop-color:#4865f4;stop-opacity:1;"
         offset="0"
         id="stop1084" />
    </linearGradient>
    <linearGradient
       id="a"
       x1="52.785469"
       x2="52.785469"
       y1="0"
       y2="105.57094"
       gradientTransform="scale(1.0076447,0.99241326)"
       gradientUnits="userSpaceOnUse"
       xlink:href="#b">
      <stop
         offset="0%"
         stop-color="#FFF"
         stop-opacity=".097"
         id="stop923" />
      <stop
         offset="100%"
         stop-color="#FFF"
         stop-opacity="0"
         id="stop925" />
    </linearGradient>
    <linearGradient
       id="b"
       x1="0.5"
       x2="0.5"
       y1="0"
       y2="1">
      <stop
         offset="0%"
         stop-color="#FFF"
         stop-opacity=".097"
         id="stop928" />
      <stop
         offset="100%"
         stop-color="#FFF"
         stop-opacity="0"
         id="stop930" />
    </linearGradient>
  </defs>
  <g
     transform="translate(-4.5617375e-7,7)"
     id="g922">
    <g
       transform="matrix(1.2220572,0,0,1.1858068,10,10)"
       id="g1160">
      <ellipse
         style="fill:#b1b4c5;fill-opacity:0.157258;fill-rule:evenodd"
         id="ellipse935"
         ry="54.814999"
         rx="53.188999"
         fill="#b1b4c5"
         cy="54.814999"
         cx="53.188999" />
      <ellipse
         style="fill:#4865f4;fill-opacity:1;fill-rule:evenodd"
         id="ellipse937"
         ry="52.384998"
         rx="53.188999"
         fill="url(#a)"
         cy="52.384998"
         cx="53.188999" />
      <ellipse
         style="fill:#f3f3f3;fill-opacity:1;fill-rule:evenodd;stroke:none;stroke-width:1.00157;stroke-miterlimit:4;stroke-dasharray:none;stroke-opacity:1;paint-order:normal"
         cx="53.188999"
         cy="53.465"
         fill="#e1e4ed"
         rx="40.832001"
         ry="41.043999"
         id="ellipse939" />
      <path
         style="fill-opacity:1;fill-rule:evenodd;stroke:none;stroke-width:1.00157;stroke-miterlimit:4;stroke-dasharray:none;stroke-opacity:1;paint-order:normal"
         fill="#8a90ac"
         fill-rule="nonzero"
         d="M 69.054,42.838 A 2.125,2.125 0 0 0 68.15,42.692 c -0.417,0.03 -0.755,0.201 -0.955,0.481 -1.177,1.666 -2.141,4.81 -2.919,7.337 -0.357,1.169 -0.836,2.733 -1.183,3.475 -0.362,-2.08 0.047,-9.697 0.206,-12.63 l 0.002,-0.047 c 0.11,-2.038 0.125,-2.396 0.1,-2.553 -0.174,-1.118 -0.618,-1.852 -1.319,-2.18 -0.708,-0.333 -1.629,-0.186 -2.62,0.417 -0.497,0.303 -0.635,1.345 -1.061,6.067 l -0.002,0.02 c -0.235,2.595 -0.776,8.568 -1.441,9.563 -0.75,-1.392 -1.784,-9.3 -2.23,-12.722 -0.312,-2.397 -0.494,-3.774 -0.616,-4.19 -0.257,-0.87 -1.343,-1.611 -2.418,-1.653 -0.895,-0.044 -1.629,0.415 -1.98,1.214 -0.655,0.736 -0.423,3.179 0.302,8.964 0.344,2.754 1.056,8.441 0.608,9.08 -0.893,-0.099 -2.427,-3.661 -4.559,-10.592 -0.598,-1.942 -0.783,-2.525 -0.967,-2.78 -0.362,-0.891 -1.593,-1.578 -2.696,-1.5 a 2.314,2.314 0 0 0 -0.277,0.036 c -0.578,0.116 -1.896,0.653 -1.615,3.13 0.779,3.435 1.624,5.957 2.445,8.405 l 0.016,0.05 c 0.491,1.465 0.955,2.85 1.387,4.388 1.016,3.63 0.621,5.882 0.616,5.907 -0.034,0.232 -0.105,0.374 -0.211,0.423 a 0.405,0.405 0 0 1 -0.143,0.033 c -0.322,0.023 -0.805,-0.193 -1.055,-0.333 -0.568,-1.098 -3.4,-6.33 -5.967,-7.055 l -0.091,-0.026 -0.093,0.008 c -0.942,0.09 -1.634,0.45 -2.057,1.068 -0.67,0.978 -0.393,2.224 -0.325,2.474 l 0.038,0.09 c 0.02,0.037 2.079,3.825 2.397,5.587 0.275,1.511 1.696,3.148 2.838,4.464 l 0.047,0.054 c 0.373,0.43 0.695,0.802 0.948,1.146 3.316,3.492 8.558,6.428 8.601,6.452 0.654,0.487 1.018,0.958 1.056,1.363 a 0.595,0.595 0 0 1 -0.117,0.43 l -0.114,0.12 0.725,0.711 13.832,-0.98 0.59,-2.73 c 1.823,-7.705 1.442,-14.275 1.436,-14.319 0.007,-0.242 0.518,-2.58 0.93,-4.468 l 0.011,-0.048 c 0.82,-3.763 1.838,-8.444 2.034,-10.225 0.085,-0.761 -0.398,-1.46 -1.23,-1.779 z"
         id="path941" />
    </g>
    <g
       transform="matrix(1.2107439,0,0,1.1858068,-73.305818,10)"
       id="g1166">
      <ellipse
         style="fill:#b1b4c5;fill-opacity:0.156863;fill-rule:evenodd"
         cx="249.686"
         cy="54.814999"
         fill="#b1b4c5"
         rx="53.686001"
         ry="54.814999"
         id="ellipse945" />
      <ellipse
         cx="249.686"
         cy="52.384998"
         fill="url(#b)"
         rx="53.686001"
         ry="52.384998"
         id="ellipse947"
         style="fill:#ec9e0e;fill-opacity:1;fill-rule:evenodd" />
      <ellipse
         style="fill:#f3f3f3;fill-opacity:1;fill-rule:evenodd"
         id="ellipse949"
         ry="41.043999"
         rx="41.214001"
         fill="#e1e4ed"
         cy="53.465"
         cx="249.687" />
      <path
         id="path951"
         d="m 238.928,53.113 4.451,-6.234 c -1.85,-0.307 -5.248,-0.375 -8.031,2.397 -4.388,4.37 -6.165,13.809 -6.535,16.093 l 11.15,11.105 c 2.008,-0.17 10.896,-1.353 19.46,-9.881 0.09,-0.184 2.177,-1.72 0.471,-3.418 -0.814,-0.81 -2.162,-0.796 -2.993,0.033 a 1.051,1.051 0 0 1 -1.497,0.015 1.04,1.04 0 0 1 0.015,-1.49 l 3.026,-3.014 c 1.538,-1.532 0.089,-4.116 -2.058,-3.495 l -2.477,2.112 a 1.065,1.065 0 0 1 -1.497,-0.103 c -0.384,-0.443 -0.302,-1.114 0.135,-1.492 8.654,-7.562 7.39,-6.65 12.958,-11.848 2.08,-1.725 -0.536,-4.776 -2.586,-3.03 l -13.469,12.064 a 1.051,1.051 0 0 1 -1.378,-0.015 c -0.445,-0.383 -0.455,-0.934 -0.164,-1.37 l 9.395,-14.545 c 1.373,-1.852 -1.33,-3.91 -2.776,-2.042 l -13.891,19.347 a 1.05,1.05 0 0 1 -1.47,0.255 1.02,1.02 0 0 1 -0.24,-1.444 z"
         fill-rule="nonzero"
         fill="#8a90ac" />
    </g>
  </g>
  <g
     id="g1154"
     transform="matrix(1.2107439,0,0,1.1858068,-31.652913,-33.9887)">
    <g
       id="g1209"
       transform="translate(3.6440316e-7,1.0622443)">
      <ellipse
         style="fill:#b1b4c5;fill-opacity:0.156863;fill-rule:evenodd"
         cx="151.686"
         cy="214.815"
         fill="#b1b4c5"
         rx="53.686001"
         ry="54.814999"
         id="ellipse957" />
      <ellipse
         cx="151.686"
         cy="212.38499"
         fill="url(#b)"
         rx="53.686001"
         ry="52.384998"
         id="ellipse959"
         style="fill:#dc2e4e;fill-opacity:1;fill-rule:evenodd" />
      <g
         id="g1202">
        <ellipse
           cx="151.687"
           cy="213.465"
           fill="#e1e4ed"
           rx="41.214001"
           ry="41.043999"
           id="ellipse961"
           style="fill:#f3f3f3;fill-opacity:1;fill-rule:evenodd" />
        <path
           fill="#8a90ac"
           fill-rule="nonzero"
           d="m 167.652,207.571 c -0.475,-5.997 -7.208,-5.385 -7.208,-5.385 -2.842,-5.01 -7.281,-1.381 -7.281,-1.381 -3.41,-4.911 -7.687,-0.36 -7.687,-0.36 -7.373,-0.796 -7.087,5.234 -7.087,5.234 -0.173,1.917 1.04,7.847 1.04,7.847 -1.094,-3.418 -3.467,-0.581 -3.467,-0.581 -2.917,4.502 -0.721,6.967 -0.721,6.967 3.947,4.626 12.357,10.18 12.357,10.18 3.046,1.745 1.757,3.3 1.757,3.3 l 18.42,-3.044 0.424,-3.494 c 2.8,-8.472 -0.547,-19.284 -0.547,-19.284 z"
           id="path963" />
      </g>
    </g>
  </g>
</svg>
